<svg height="16" viewBox="0 -960 320 320" width="16" xmlns="http://www.w3.org/2000/svg"><g stroke-width=".05" transform="matrix(20 0 0 20 0 -960)"><path d="m14.791016 1.2089844c-.001665-.0016957-.002224-.0041761-.003907-.0058594-.087033-.08702-.192758-.1481104-.318359-.1835938-.125614-.03548328-.254627-.02285703-.386719.0351563l-12.6621091 4.7792969c-.1450334.06111-.2507591.1453733-.3183594.25-.0675877.1046266-.1015625.2233787-.1015625.3554687 0 .1320934.0339748.2554669.1015625.3730469.0676003.1175833.173326.2056585.3183594.2636719l5.40625 2.09375z" fill="#e0e0e0"/><path d="m14.791016 1.2089844-7.9648441 7.9609375 2.09375 5.4042971c.0580133.148143.1460902.256631.2636719.324219.1175813.067587.2437182.101562.3789062.101562.1320913 0 .2488893-.033975.3535156-.101562.1046264-.067588.1861274-.176076.2441404-.324219l4.78711-12.6601565c.058026-.13209.068289-.2611021.03125-.3867187-.036348-.1232543-.10004-.2292626-.1875-.3183594z" fill="#8da5f3"/></g></svg>