<svg height="16" viewBox="0 0 16 16" width="16" xmlns="http://www.w3.org/2000/svg"><g fill="#ff4545"><path d="m1 1v2 2h2v-2h2v-2zm10 0v2h2v2h2v-4zm-10 10v2 2h2 2v-2h-2v-2zm12 0v2h-2v2h4v-2-2z"/><path d="m7.743199 2.4880364-1.0874108 2.1117401.1021326 3.7458611-1.832378.0000001v1.6311168h1.8744325l.072094 2.6224035 1.7422606-.000001.072094-2.6224025 1.8744321-.0000003v-1.6311169l-1.8323775.0000003.1021326-3.7458612z" stroke-linecap="square" stroke-width=".1" transform="matrix(.70710678 .70710678 -.70710678 .70710678 8.166851 -3.117388)"/></g></svg>