<svg height="16" viewBox="0 0 16 16" width="16" xmlns="http://www.w3.org/2000/svg"><g fill="#ff4545"><path d="m1 1v2 2h2v-2h2v-2zm10 0v2h2v2h2v-4zm-10 10v2 2h2 2v-2h-2v-2zm12 0v2h-2v2h4v-2-2z"/><path d="m8.0000002 11.230578c-.067304 0-.1346075-.02524-.1850854-.07572l-2.6248467-2.5323c-.0336519-.0294452-.9590783-.8749489-.9590783-1.8845053 0-1.2325.7529606-1.9686348 2.0106997-1.9686348.7361346 0 1.4259981.7487543 1.7583107 1.07686.332312-.3281057 1.0221755-1.07686 1.7583106-1.07686 1.2577392 0 2.0106992.7361348 2.0106992 1.9686348 0 1.0095564-.925426 1.8550599-.963284 1.8929183l-2.6206405 2.523891c-.050478.05048-.1177816.07572-.1850853.07572z" stroke-width=".999999"/></g></svg>