<svg height="16" viewBox="0 -960 320 320" width="16" xmlns="http://www.w3.org/2000/svg"><path d="m159.87641-674.94776q-4.36928 0-8.6148-1.54376-4.24587-1.54411-7.41579-4.71403l-18.35382-17.05759q-42.66586-39.39803-74.07893-75.67131-31.41307-36.2729-31.41307-76.23319 0-31.93361 21.39309-53.40911 21.39274-21.4755 52.98197-21.4755 17.49955 0 34.65435 8.199 17.15446 8.19911 30.847 27.17481 15.41592-18.9757 31.53649-27.17481 16.12057-8.199 33.96486-8.199 31.67129 0 53.14676 21.4755 21.47548 21.4755 21.47548 53.40911 0 39.96029-31.53683 76.2332-31.53649 36.27328-74.11995 75.75405l-18.35382 16.97484q-3.17027 3.16993-7.45681 4.71403-4.28689 1.54376-8.65618 1.54376z" fill="#ff4545" stroke-width=".999999"/></svg>