<svg height="16" viewBox="0 -960 320 320" width="16" xmlns="http://www.w3.org/2000/svg"><path d="m183.17561-660h-46.49567q-4.36929 0-7.75296-2.74278-3.38366-2.74314-4.07316-7.11242l-5.43351-34.24208q-6.05544-2.16569-12.92413-6.09646-6.868679-3.93113-11.972269-8.08288l-31.48413 14.65922q-4.2869 1.9709-8.61516.55814-4.32792-1.41276-6.64357-5.69932l-23.33023-41.4069q-2.398387-3.94215-1.240391-8.27007 1.157652-4.32826 4.672665-7.07105l29.153316-21.30692q-.6071-2.85518-.77947-6.57256-.17238-3.71704-.17238-6.57255 0-2.85552.17238-6.57256.17237-3.71737.77947-6.57254l-29.153316-21.38932q-3.514668-2.74279-4.672665-7.07105-1.157996-4.32792 1.240391-8.18768l23.33023-41.4069q2.39804-4.12177 6.72597-5.57591 4.32826-1.45378 8.53276.51712l31.64892 14.57683q5.02119-4.06936 11.848519-7.95912 6.82765-3.88939 12.88309-5.79307l5.43351-34.75162q.6895-4.36928 4.07316-7.11242 3.38367-2.74313 7.75296-2.74313h46.49567q4.36929 0 7.75295 2.74313 3.38367 2.74314 4.07317 7.11242l5.43351 34.40687q6.05543 2.24843 13.05547 5.96546 6.99969 3.71738 11.84093 8.13148l31.48413-14.57683q4.2045-1.9709 8.57378-.55814 4.3693 1.41277 6.68495 5.61693l23.41297 41.06215q2.39803 3.94216 1.37139 8.44245-1.02665 4.50063-4.8864 7.16103l-29.23571 20.69983q.60675 3.19991.82049 6.9173.21375 3.71702.21375 6.91729 0 3.20026-.21375 6.74492-.21374 3.54501-.82049 6.74493l29.23571 20.96218q3.51501 2.74279 4.67266 7.07105 1.158 4.32792-1.15765 8.27007l-23.49537 41.4069q-2.31565 4.28656-6.60255 5.69932-4.28688 1.41276-8.57378-.55814l-31.56652-14.65922q-5.1036 4.15175-11.75854 8.21388-6.6553 4.06212-13.05547 5.96546l-5.43351 34.24208q-.6895 4.36928-4.07317 7.11207-3.38366 2.74313-7.75295 2.74313zm-23.41263-95.14187q18.6162 0 31.71648-13.10028 13.1003-13.10029 13.1003-31.71648 0-18.6162-13.1003-31.71648-13.10028-13.10029-31.71648-13.10029-18.61619 0-31.71648 13.10029-13.10028 13.10028-13.10028 31.71648 0 18.61619 13.10028 31.71648 13.10029 13.10028 31.71648 13.10028z" fill="#ffe345" stroke-width=".999994"/></svg>