<svg height="16" viewBox="0 -960 320 320" width="16" xmlns="http://www.w3.org/2000/svg"><g fill="#ffe345" stroke-linecap="round" stroke-linejoin="round" stroke-width=".378" transform="matrix(20 0 0 20 0 -960)"><path d="m7.9882812 5.7617188c-.3102698 0-.5970241.0548934-.8613281.1640624-.264304.1091691-.5062712.2718963-.7246093.4902344-.218338.218338-.3830186.4603054-.4921876.7246094-.1091689.264304-.1621093.5510581-.1621093.8613281 0 .3102699.0529404.5970241.1621093.8613281.109169.2643041.2738496.5062713.4921876.7246094.2183381.218338.4603053.3830185.7246093.4921874.264304.109169.5510583.16211.8613281.16211.31027 0 .5970242-.052941.8613282-.16211.264304-.1091689.5062713-.2738494.7246094-.4921874.2183383-.2183381.3810652-.4603053.4902342-.7246094.109169-.264304.164063-.5510582.164063-.8613281 0-.31027-.054894-.5970241-.164063-.8613281s-.2718959-.5062714-.4902342-.7246094c-.2183381-.2183381-.4603054-.3810653-.7246094-.4902344-.264304-.109169-.5510582-.1640624-.8613282-.1640624z"/><path d="m0 0v16h16v-16zm6.8339844 1h2.3242187c.145643 0 .2758832.0452811.3886719.1367188.112789.091438.1801417.209826.203125.3554687l.271484 1.7207031c.201848.0749477.419009.1749272.652344.2988282.233323.1239126.430422.2591133.591797.40625l1.574219-.7285157c.14015-.0656966.284045-.0744357.429687-.0273437.145644.0470923.256796.1391582.333985.2792968l1.169922 2.0546876c.079934.1314053.104533.2718653.070312.421875-.034222.1500209-.117435.2687418-.246094.3574218l-1.460937 1.0351563c.020225.1066636.033891.2217901.041015.3457031.007125.1239007.011719.2390275.011719.3457031 0 .1066754-.004594.2197353-.011719.3378907-.007124.1181669-.02079.2292735-.041015.3359374l1.460937 1.0488282c.117167.0914263.195787.2092403.234375.3535156.0386.144264.018595.282657-.058593.414063l-1.173829 2.070312c-.077188.142885-.187181.238064-.330078.285156-.142896.047092-.286791.0364-.429687-.029297l-1.578125-.732421c-.17012.138391-.36606.274751-.587891.410156-.221843.135404-.439005.235383-.652344.298828l-.271484 1.71289c-.0229833.145643-.090336.264043-.203125.355469-.1127887.091438-.2430289.136719-.3886719.136719h-2.3242187c-.145643 0-.2739298-.045293-.3867188-.136719-.1127886-.091438-.1820948-.209826-.2050781-.355469l-.2714844-1.71289c-.201848-.07219-.417528-.173662-.6464843-.304688-.228956-.131037-.4275366-.265905-.5976563-.404296l-1.5742187.732421c-.1428967.065697-.2873653.076389-.4316407.029297-.144264-.047092-.2548429-.142271-.3320312-.285156l-1.1660157-2.070312c-.0799462-.131406-.1010998-.269799-.0625-.414063.0385884-.1442753.1172079-.2620893.234375-.3535156l1.4570313-1.0644532c-.0202367-.0951726-.0333168-.2061654-.0390625-.3300781-.005746-.1239013-.0078125-.2329413-.0078125-.328125 0-.095184.0020665-.2042236.0078125-.328125.0057457-.1239123.0188258-.2329526.0390625-.328125l-1.4570313-1.0703125c-.1171556-.0914263-.1957751-.2092403-.234375-.3535156-.0385998-.144264-.0174462-.2814976.0625-.4101562l1.1660157-2.0703126c.0799346-.1373923.1916731-.2288724.3359375-.2773437.1442753-.0484593.2875844-.040306.4277344.0253906l1.5820312.7285157c.167373-.1356454.3642192-.2687789.5917969-.3984376.2275883-.1296463.4426832-.2256065.6445312-.2890624l.2714844-1.7382813c.0229833-.1456427.0922895-.2640307.2050781-.3554687.112789-.0914377.2410758-.1367188.3867188-.1367188z"/></g></svg>